<?xml version="1.0" standalone="no"?>
<!DOCTYPE svg PUBLIC "-//W3C//DTD SVG 20010904//EN"
 "http://www.w3.org/TR/2001/REC-SVG-20010904/DTD/svg10.dtd">
<svg version="1.0" xmlns="http://www.w3.org/2000/svg"
 width="512.000000pt" height="512.000000pt" viewBox="0 0 512.000000 512.000000"
 preserveAspectRatio="xMidYMid meet">

<g transform="translate(0.000000,512.000000) scale(0.100000,-0.100000)"
fill="#000000" stroke="none">
<path d="M1934 4794 c-329 -180 -609 -336 -622 -349 -14 -13 -26 -39 -29 -63
-5 -37 -2 -45 30 -77 42 -42 92 -47 145 -15 l32 20 -2 -616 -3 -615 -725 -378
c-759 -396 -760 -397 -760 -461 0 -40 35 -87 74 -100 30 -10 42 -8 82 9 26 12
48 21 50 21 2 0 4 -419 4 -931 0 -1032 -3 -981 65 -1013 28 -14 88 -16 414
-16 l381 0 0 -65 c0 -76 12 -106 50 -128 26 -16 141 -17 1440 -17 1299 0 1414
1 1440 17 38 22 50 52 50 128 l0 65 381 0 c326 0 386 2 414 16 68 32 65 -19
65 1013 0 512 3 931 8 931 4 0 16 -6 27 -14 74 -50 175 -1 175 86 0 64 -3 65
-763 462 l-727 378 0 614 0 614 33 -20 c60 -37 132 -22 162 35 22 40 14 93
-18 122 -19 18 -1020 569 -1174 647 -29 14 -63 26 -76 26 -13 0 -293 -147
-623 -326z m685 -440 c32 -23 51 -74 51 -138 l0 -54 74 -4 c62 -3 79 -7 100
-27 35 -33 44 -85 21 -126 -22 -43 -52 -55 -130 -55 l-65 0 0 -110 c0 -157
-28 -210 -110 -210 -82 0 -110 53 -110 210 l0 110 -65 0 c-78 0 -108 12 -130
55 -23 41 -14 93 21 126 21 20 38 24 100 27 l74 4 0 54 c0 99 40 154 110 154
20 0 46 -7 59 -16z m87 -2675 c149 -56 250 -181 275 -341 5 -36 8 -289 7 -593
l-3 -530 -425 0 -425 0 -3 530 c-1 308 2 557 7 593 35 225 234 385 456 365 33
-3 83 -14 111 -24z"/>
</g>
</svg>
