<?xml version="1.0" standalone="no"?>
<!DOCTYPE svg PUBLIC "-//W3C//DTD SVG 20010904//EN"
 "http://www.w3.org/TR/2001/REC-SVG-20010904/DTD/svg10.dtd">
<svg version="1.0" xmlns="http://www.w3.org/2000/svg"
 width="102.000000pt" height="102.000000pt" viewBox="0 0 102.000000 102.000000"
 preserveAspectRatio="xMidYMid meet">

<g transform="translate(0.000000,102.000000) scale(0.100000,-0.100000)"
fill="#000000" stroke="none">
<path d="M350 1005 c-10 -12 -9 -20 4 -40 16 -24 15 -27 -10 -70 -20 -35 -25
-53 -20 -79 8 -40 37 -69 60 -60 19 7 21 27 4 54 -11 17 -9 27 10 60 26 46 28
91 6 125 -19 28 -36 32 -54 10z"/>
<path d="M491 1006 c-9 -11 -9 -20 -2 -35 16 -29 13 -50 -9 -78 -28 -35 -26
-85 4 -120 23 -26 26 -27 41 -12 13 13 15 21 6 37 -16 30 -14 51 9 79 28 36
27 93 -3 121 -27 26 -31 26 -46 8z"/>
<path d="M623 1004 c-3 -8 0 -27 8 -41 12 -22 11 -29 -9 -63 -28 -49 -28 -99
-2 -128 24 -26 33 -27 50 -7 10 12 9 20 -4 40 -15 23 -14 27 10 72 18 34 24
57 20 77 -11 53 -59 86 -73 50z"/>
<path d="M186 613 c13 -57 43 -113 86 -159 96 -104 248 -135 373 -75 96 46
165 132 189 234 l6 27 -330 0 -330 0 6 -27z"/>
<path d="M339 318 c0 -2 -14 -68 -29 -148 -24 -125 -26 -147 -14 -160 22 -22
40 3 56 80 l14 65 144 0 144 0 14 -65 c16 -77 34 -102 56 -80 12 13 11 35 -12
157 -15 78 -30 144 -34 148 -3 4 -16 1 -28 -5 -18 -10 -21 -17 -15 -51 l7 -39
-132 0 -132 0 7 39 c5 33 3 41 -14 50 -19 11 -30 14 -32 9z"/>
</g>
</svg>
